<?xml version="1.0" standalone="no"?>
<!DOCTYPE svg PUBLIC "-//W3C//DTD SVG 20010904//EN"
 "http://www.w3.org/TR/2001/REC-SVG-20010904/DTD/svg10.dtd">
<svg version="1.0" xmlns="http://www.w3.org/2000/svg"
 width="455.000000pt" height="455.000000pt" viewBox="0 0 455.000000 455.000000"
 preserveAspectRatio="xMidYMid meet">
<metadata>
Created by potrace 1.11, written by Peter Selinger 2001-2013
</metadata>
<g transform="translate(0.000000,455.000000) scale(0.100000,-0.100000)"
fill="#000000" stroke="none">
<path d="M2235 4357 c-17 -12 -36 -27 -43 -34 -8 -7 -23 -18 -34 -24 -11 -6
-27 -17 -36 -24 -9 -8 -55 -42 -102 -77 -127 -92 -251 -184 -380 -279 -150
-112 -155 -114 -172 -90 -8 11 -43 50 -78 88 -36 38 -112 120 -170 183 -58 62
-119 128 -135 146 -27 28 -65 45 -135 59 -8 2 -62 15 -119 29 -57 14 -108 26
-113 26 -4 0 -6 -15 -3 -32 3 -18 8 -44 10 -58 2 -14 7 -49 10 -78 2 -29 7
-63 10 -75 2 -12 7 -39 10 -61 6 -42 13 -53 103 -153 33 -38 69 -77 79 -89 63
-73 134 -153 174 -197 l47 -51 -182 -134 c-288 -213 -380 -281 -401 -296 -11
-8 -66 -49 -121 -90 l-102 -75 50 -163 c27 -90 60 -197 73 -238 87 -280 177
-570 244 -787 22 -71 60 -194 85 -275 25 -80 46 -150 46 -156 0 -5 -17 -27
-38 -49 -20 -22 -73 -80 -117 -128 -149 -165 -154 -169 -160 -154 -3 8 -22 58
-43 112 l-38 98 -100 -107 c-54 -59 -127 -137 -161 -173 -34 -36 -60 -67 -59
-69 3 -3 28 -9 76 -18 101 -19 240 -68 240 -83 0 -3 -23 -19 -51 -36 -46 -27
-153 -123 -187 -168 -20 -27 -62 -120 -62 -139 0 -10 -14 -24 -33 -32 -88 -40
-114 -112 -69 -191 19 -33 95 -75 125 -69 53 10 133 87 121 118 -3 7 11 17 33
25 104 37 216 153 278 288 11 24 23 43 26 43 11 0 77 -142 99 -215 12 -38 23
-76 26 -83 4 -12 20 5 164 168 36 41 84 95 108 120 l43 47 1214 -1 1213 -1 22
-25 c81 -93 109 -125 135 -154 17 -18 57 -63 89 -100 l59 -67 24 78 c34 111
67 186 95 216 16 18 17 17 36 -27 23 -52 73 -128 111 -170 39 -42 121 -101
164 -116 21 -8 37 -21 37 -30 0 -57 95 -126 151 -110 66 19 123 88 114 137 -2
10 -4 26 -4 35 -1 23 -69 88 -93 88 -10 0 -18 3 -19 8 -10 96 -139 261 -258
329 l-54 31 25 16 c25 16 119 49 173 60 36 8 84 17 105 20 26 5 29 1 -174 219
-56 60 -102 113 -104 118 -10 27 -32 -1 -62 -78 -51 -134 -44 -128 -86 -85
-20 20 -66 70 -103 111 -36 41 -87 97 -113 125 -27 28 -48 56 -48 63 0 11 103
339 193 613 63 191 171 526 172 530 1 5 106 332 135 420 10 30 17 57 15 61 -2
3 -92 68 -200 145 -108 76 -209 149 -223 161 -15 13 -32 23 -39 23 -6 0 -13 4
-15 8 -1 5 -81 63 -175 131 -95 68 -173 126 -173 129 0 4 20 28 43 53 23 25
71 79 107 119 36 40 70 78 75 84 134 149 163 185 168 211 8 35 13 70 22 140 7
51 9 69 20 143 7 50 29 50 -189 -3 -147 -35 -150 -37 -188 -80 -21 -24 -60
-66 -86 -93 -26 -27 -81 -86 -122 -132 -116 -128 -185 -200 -193 -200 -4 0
-51 32 -105 70 -112 81 -91 67 -292 209 -85 60 -159 114 -165 118 -5 5 -32 24
-60 43 -27 18 -52 37 -55 40 -3 4 -32 25 -65 47 l-61 41 -29 -21z m-1211
-3558 c15 -50 30 -98 33 -107 5 -12 0 -14 -23 -9 -64 11 -168 43 -171 52 -2 6
9 24 23 40 14 17 42 49 61 73 20 23 38 42 42 42 4 0 19 -41 35 -91z m2593 45
c21 -25 50 -60 66 -76 15 -17 27 -32 27 -34 0 -2 -19 -8 -42 -15 -24 -6 -43
-11 -43 -10 0 0 -29 -8 -64 -19 -58 -17 -63 -17 -58 -2 45 149 63 202 69 202
4 0 24 -21 45 -46z"/>
</g>
</svg>
